<svg xmlns="http://www.w3.org/2000/svg" aria-labelledby="GOVNRS-logo" data-name="Layer 1" viewBox="0 0 299.008 74.665">
  <title id="GOVNRS-logo">GOVNRS - Official Music Site</title>
  <path d="M0 0h299.008v74.665H0z" style="fill:none;stroke-width:0"/>
  <path d="M196.696 15.206c.509.573.519 1.154.512 1.76a2898.88 2898.88 0 0 0-.12 14.722c-.007 1.263.086 2.526.081 3.789-.02 5.056-.07 10.112-.086 15.168-.006 2.006.053 4.013.081 6.02.005.371.018.744-.003 1.115-.066 1.179-.282 1.434-1.385 1.641-.365.069-.735.15-1.104.153-1.785.02-3.57.013-5.356.023-.973.005-1.687-.425-2.262-1.197-2.396-3.22-4.81-6.428-7.22-9.64-1.382-1.843-2.763-3.686-4.15-5.526-2.776-3.68-5.56-7.355-8.329-11.04-.714-.95-1.383-1.934-2.088-2.892-.27-.367-.586-.686-1.215-.422-.022.315-.12.688-.058 1.032.395 2.221.075 4.44.042 6.661a945.366 945.366 0 0 0-.086 11.6c-.008 3.27.025 6.539.029 9.808.001.995-.456 1.553-1.471 1.583a77.032 77.032 0 0 1-5.578-.014c-1.144-.049-1.536-.61-1.524-1.77.077-7.73.145-15.462.23-23.193.035-3.113.157-6.226.148-9.338-.008-2.747-.142-5.494-.222-8.24-.009-.297-.05-.595-.03-.89.034-.517.53-1.072 1.032-.954 2.157.509 4.293-.113 6.437-.025.37.015.742.064 1.108.123.613.097 1.072.4 1.457.916 6.452 8.636 12.92 17.26 19.384 25.888.936 1.249 1.854 2.512 2.804 3.75.2.262.503.444.85.74.16-.346.32-.53.32-.715.024-3.79.045-7.581.033-11.372-.012-4.087-.048-8.174-.095-12.26-.021-1.855-.1-3.708-.144-5.562-.025-1.047.434-1.558 1.414-1.567 1.858-.017 3.716-.029 5.575-.02.36.001.718.103.99.145Z" style="fill:none;stroke:#000;stroke-miterlimit:10"/>
  <path d="M38.287 35.781c.677-.06 1.262-.157 1.845-.154 4.389.023 8.777.077 13.165.1 2.082.012 4.164-.024 6.245-.032.98-.003 1.391.337 1.449 1.28.04.665-.023 1.336-.022 2.005.007 4.909.021 9.817.026 14.726.001 1.262-.01 2.526-.037 3.788-.027 1.312-.398 1.714-1.743 1.771-1.039.045-2.082-.005-3.124-.02-.517-.009-1.034-.052-1.552-.051-1.222.002-1.322-.073-1.58-1.306-.03-.145-.036-.296-.075-.438-.018-.066-.089-.117-.25-.315-.312.053-.773.015-1.101.206-2.162 1.26-4.492 1.919-6.972 2.138-1.11.098-2.207.356-3.318.444-6.206.492-11.892-1.044-16.659-5.04-6.454-5.41-9.349-12.432-8.078-20.842 1.142-7.561 5.243-13.148 12.123-16.589 5.592-2.797 11.51-3.38 17.6-2.271 4.752.865 8.782 3.149 12.139 6.614.843.87.88 1.425.062 2.301a126.35 126.35 0 0 1-3.896 3.993c-.783.768-1.507.712-2.32-.094-.369-.366-.657-.82-1.048-1.155-.728-.625-1.432-1.345-2.276-1.756-2.068-1.007-4.171-1.942-6.54-2.105-1.12-.078-2.204-.114-3.324.056-1.684.256-3.425.181-5.013.942-.868.415-1.812.73-2.582 1.284-2.883 2.077-5.169 4.682-6.624 7.959-.15.336-.295.702-.317 1.062-.42 6.777 1.406 12.166 7.993 15.904 1.973 1.12 4.17 1.57 6.422 1.678 3.488.167 6.805-.458 9.864-2.232 1.437-.833 2.674-1.881 3.67-3.208.22-.293.435-.613.555-.954.353-.998-.148-1.792-1.192-1.936a3.977 3.977 0 0 0-.89-.039c-3.719.333-7.427-.152-11.142-.14-1.528.006-2.055-.522-1.92-2.034.118-1.336.173-2.656.092-3.994-.03-.483.21-.982.345-1.546Z" style="stroke-width:0"/>
  <path d="M229.574 46.238c-.214.731.218 1.041.62 1.384 2.039 1.738 4.069 3.486 6.106 5.226 1.811 1.546 3.628 3.085 5.439 4.63.168.144.378.292.45.482.098.256.183.602.084.825-.099.222-.428.479-.662.484-2.299.045-4.6-.01-6.899.064-2.284.075-4.024-.7-5.689-2.376-3.247-3.27-6.793-6.245-10.168-9.392-1.057-.985-2.16-1.466-3.623-1.262-.871.122-1.778-.018-2.67-.026-1.226-.012-1.612.351-1.605 1.576.016 2.973.055 5.947.085 8.92.026 2.482-.144 2.64-2.65 2.603-1.188-.017-2.378.028-3.566.007a5.55 5.55 0 0 1-1.31-.2c-.47-.125-.752-.491-.828-.96-.058-.362-.035-.738-.035-1.109.002-3.187.018-6.375.01-9.563-.013-4.235-.064-8.47-.059-12.706.004-3.12.083-6.24.106-9.36.018-2.526 0-5.052 0-7.578 0-.371-.009-.744.01-1.115.06-1.25.332-1.53 1.644-1.515 3.494.04 6.988.114 10.482.168.67.01 1.34-.006 2.01-.01 3.57-.028 7.143-.104 10.713-.071 7.395.067 13.455 4.757 15.167 11.817 1.143 4.713.125 8.983-2.762 12.833-2.328 3.105-5.494 4.917-9.181 5.923-.42.114-.846.21-1.22.301Zm-10.725-23.154-.001-.046-6.7.111c-.148.003-.336-.033-.437.041-.28.207-.62.417-.755.71-.144.315-.106.725-.105 1.093.012 4.162.033 8.324.05 12.486.003.83.334 1.254 1.16 1.328.814.073 1.635.074 2.454.09 3.272.061 6.547.21 9.816.134 1.688-.039 3.444-.256 5.033-.793 2.896-.978 5.903-5.074 4.961-9.018-.404-1.693-1.108-2.987-2.54-4.005-1.824-1.299-3.783-2.044-6.017-2.066-2.306-.023-4.613-.043-6.92-.065Z" style="fill:none;stroke:#000;stroke-miterlimit:10"/>
  <path d="M87.577 14.434c5.114.1 9.923 1.156 14.09 3.962 3.93 2.646 7.035 6.074 8.826 10.651 1.659 4.241 2.105 8.515 1.185 12.907-.836 3.997-2.645 7.56-5.472 10.563-1.847 1.962-3.887 3.665-6.247 5.002-1.772 1.004-3.65 1.667-5.622 2.084-4.361.921-8.7.798-13.057-.16-2.36-.518-4.537-1.387-6.629-2.55-5.384-2.99-8.623-7.645-10.334-13.432-2.03-6.862-.87-13.261 3.141-19.129 2.964-4.334 7.082-7.133 12.096-8.65 2.655-.803 5.389-1.082 8.023-1.248Zm.059 8.17c-2.63-.191-5.055.554-7.387 1.538-4.795 2.023-7.362 5.909-8.322 10.833-.61 3.132-.035 6.2 1.574 9.04 2.262 3.99 5.626 6.457 10.097 7.37 1.449.295 2.944.382 4.423.507 3.818.323 7.214-.886 10.174-3.18 3.606-2.793 5.496-6.522 5.571-11.15.053-3.267-.993-6.15-2.944-8.687-3.32-4.317-7.94-5.998-13.186-6.272Z" style="stroke-width:0"/>
  <path d="M264.135 59.995c-6.397-.064-12.342-1.661-17.684-5.253-1.046-.703-2.033-1.502-2.994-2.32-.673-.574-.707-1.305-.097-1.954 1.17-1.247 2.38-2.458 3.6-3.654.581-.569 1.153-.585 1.806-.12.906.643 1.768 1.353 2.703 1.951 2.793 1.79 5.89 2.882 9.125 3.427 2.71.456 5.486.423 8.226.089 1.176-.144 2.318-.498 3.292-1.266 1.445-1.14 2.256-2.596 2.086-4.438-.195-2.116-1.403-3.563-3.366-4.325-.754-.292-1.571-.468-2.376-.578-4.565-.624-9.148-1.126-13.699-1.839-3.805-.596-6.871-2.484-8.51-6.099-1.09-2.405-1.381-4.993-.871-7.629.848-4.384 3.642-7.221 7.453-9.153 3.029-1.534 6.314-2.183 9.703-2.203 5.376-.03 10.467 1.143 15.203 3.739.196.107.393.211.582.329 1.806 1.124 1.923 1.81.607 3.543-.675.888-1.328 1.794-2.036 2.655-.973 1.185-1.384 1.271-2.648.55-3.153-1.797-6.533-2.852-10.157-3.018-1.554-.07-3.142-.092-4.67.144-2.378.368-4.337 1.533-5.44 3.796-1.082 2.216-.454 4.162 1.815 5.165 1.274.563 2.666.944 4.044 1.166 1.533.248 3.108.264 4.667.304 2.841.072 5.619.6 8.384 1.16 3.036.615 5.438 2.406 7.421 4.675.855.978 1.525 2.254 1.876 3.508 1.134 4.054.797 7.983-1.81 11.455-1.64 2.187-3.863 3.7-6.41 4.66-2.869 1.082-5.832 1.738-8.933 1.536-.296-.02-.594-.003-.892-.003Z" style="fill:none;stroke:#000;stroke-miterlimit:10"/>
  <path d="M112.784 15.245c1.04 0 2.084.06 3.119-.017 1.118-.082 1.86.342 2.305 1.346.15.339.315.672.456 1.015 1.79 4.322 3.553 8.655 5.367 12.968 1.756 4.174 3.566 8.326 5.344 12.492.32.751.581 1.527.907 2.276.144.33.356.734.8.596.223-.069.44-.366.534-.609 1.45-3.736 2.867-7.484 4.317-11.22 1.987-5.122 4.003-10.232 5.99-15.354.321-.829.526-1.702.836-2.536.255-.688.77-1.05 1.54-1.052 2.377-.003 4.753-.043 7.13-.033.888.003 1.288.687.938 1.563-.357.894-.787 1.76-1.144 2.653-1.048 2.619-2.08 5.244-3.11 7.87-1.815 4.63-3.626 9.26-5.438 13.891-.73 1.867-1.464 3.733-2.19 5.602-1.32 3.39-2.634 6.782-3.95 10.174-1.065 2.742-1.32 2.708-3.896 2.67-1.258-.018-2.52-.055-3.775.006-1.337.065-2.04-.616-2.503-1.77-.608-1.516-1.278-3.006-1.924-4.505-2.41-5.592-4.79-11.198-7.24-16.773-2.837-6.457-5.735-12.887-8.607-19.328-.09-.203-.213-.393-.287-.602-.28-.79.088-1.33.915-1.336 1.189-.009 2.378-.002 3.566-.002v.015Z" style="stroke-width:0"/>
</svg>
