<?xml version="1.0" encoding="UTF-8"?>
<svg id="uuid-84b71588-9203-4552-b674-3fb4a8c92cdc" data-name="Layer 1" xmlns="http://www.w3.org/2000/svg" viewBox="0 0 299.008413 74.665179">
  <rect width="299.008413" height="74.665179" style="fill: none; stroke-width: 0px;"/>
  <g>
    <path d="M196.69639,15.206023c.508358.573338.518173,1.153613.511848,1.760793-.051122,4.906939-.094419,9.813993-.120621,14.721116-.006707,1.262723.086294,2.52591.081441,3.788674-.01944,5.056112-.070944,10.112089-.08594,15.168201-.005944,2.006507.053249,4.013191.080841,6.019821.005099.371756.018159.744601-.002563,1.11528-.0659,1.178904-.28233,1.43385-1.385585,1.641415-.364889.068666-.734958.148983-1.103446.153139-1.785319.020127-3.570992.01206-5.356474.022307-.972519.005573-1.687192-.424424-2.261695-1.196619-2.396166-3.220841-4.810464-6.428178-7.219253-9.639589-1.382504-1.843148-2.764299-3.686827-4.151493-5.526445-2.775315-3.680422-5.558618-7.354794-8.328343-11.039413-.7144-.950395-1.383377-1.934775-2.087771-2.892876-.269406-.366461-.586472-.686026-1.215669-.422059-.02124.315306-.118876.687845-.057666,1.03217.394962,2.221035.074516,4.440217.041743,6.661171-.057039,3.866089-.07607,7.732913-.085667,11.599479-.008098,3.269462.024511,6.539006.028765,9.808522.001309.994941-.456009,1.552595-1.470816,1.582574-1.857953.054889-3.721277.066418-5.577649-.013354-1.143989-.049152-1.536116-.611153-1.524555-1.769808.076942-7.731155.144887-15.46242.230717-23.19348.034545-3.11293.156229-6.22558.147204-9.338094-.007961-2.746986-.142188-5.493611-.221693-8.240372-.008589-.296719-.049268-.594923-.030046-.889503.033754-.517557.529625-1.072063,1.032093-.953679,2.157133.508256,4.293081-.113062,6.436581-.025257.370751.015187.741856.063999,1.10879.12237.612211.097391,1.071382.400938,1.456611.916566,6.452232,8.636104,12.920822,17.259999,19.384232,25.88775.93582,1.249178,1.853809,2.511902,2.803425,3.750437.200317.261255.50345.443774.849771.74005.160755-.346437.319956-.530441.321074-.715412.023066-3.790418.043924-7.581014.032418-11.37146-.012433-4.08711-.047632-8.174234-.094855-12.261106-.02143-1.85394-.100772-3.707158-.144369-5.560928-.02462-1.047316.434442-1.558809,1.41375-1.567789,1.858389-.017047,3.716969-.028439,5.575386-.020209.359381.001594.718326.103578.989478.145617Z" style="fill: none; stroke: #000; stroke-miterlimit: 10;"/>
    <path d="M38.287163,35.781113c.676911-.0594,1.261365-.157609,1.845302-.154441,4.388318.023793,8.7765.077006,13.164845.100982,2.0815.011372,4.163272-.024494,6.244908-.032309.979553-.003672,1.391202.337048,1.44854,1.278864.040516.66581-.022412,1.33729-.021512,2.006221.006734,4.908438.020776,9.816869.025766,14.725306.001254,1.262764-.009788,2.525808-.036562,3.788265-.02781,1.31191-.398534,1.713842-1.743003,1.771463-1.039318.044553-2.08289-.005015-3.124471-.021176-.517355-.008033-1.034411-.051019-1.551575-.05029-1.222404.001724-1.32203-.072815-1.580258-1.305832-.030401-.145167-.03599-.296249-.075061-.438548-.017995-.065491-.08913-.116408-.250866-.314305-.311068.052934-.772502.01501-1.100338.206107-2.162013,1.260284-4.491516,1.918423-6.972095,2.137516-1.110235.098052-2.206865.355976-3.317345.44406-6.206164.492272-11.892792-1.043971-16.659222-5.039283-6.454167-5.41003-9.349094-12.4326-8.078458-20.84303,1.142244-7.560799,5.243024-13.147958,12.123482-16.588697,5.592181-2.79651,11.510044-3.379285,17.600331-2.271032,4.751135.864562,8.781026,3.149061,12.138096,6.613702.8435.870497.879545,1.425814.062083,2.301638-1.268591,1.359113-2.568509,2.690778-3.895883,3.992567-.783272.768149-1.50656.71238-2.319715-.094339-.36876-.365821-.656925-.818684-1.04818-1.154628-.728115-.625172-1.431472-1.344447-2.276091-1.755792-2.067867-1.007035-4.171233-1.941752-6.538962-2.105268-1.120459-.07738-2.205147-.11419-3.324952.05602-1.683947.255954-3.424742.181487-5.012471.941731-.868257.415736-1.812475.72985-2.582169,1.284332-2.882957,2.076849-5.168836,4.682183-6.624056,7.958731-.149358.336326-.29539.702521-.31772,1.062619-.420128,6.776298,1.406143,12.165752,7.993609,15.904224,1.972466,1.119423,4.169924,1.569956,6.422049,1.677649,3.488079.166793,6.805178-.457803,9.863695-2.231698,1.436598-.83319,2.674352-1.881868,3.670319-3.208209.220111-.293162.434578-.612741.555199-.954197.352701-.99813-.148622-1.792367-1.192794-1.936417-.293236-.040458-.596533-.064959-.889987-.038639-3.718523.333491-7.426523-.152097-11.141147-.139567-1.528781.005151-2.055625-.52251-1.92099-2.034769.11893-1.335716.173979-2.655352.09202-3.99378-.029555-.482638.211059-.981812.34564-1.545754Z" style="stroke-width: 0px;"/>
    <path d="M229.573921,46.238337c-.214206.730772.217933,1.041101.619751,1.383583,2.038947,1.73788,4.069352,3.485794,6.106684,5.225581,1.810737,1.546259,3.627694,3.085248,5.438484,4.631437.1681.143538.378063.290695.450352.480843.097528.256587.182591.6019.083651.825003-.098651.222471-.428113.479175-.661502.483757-2.299185.045099-4.601184-.009941-6.898869.064786-2.284384.074263-4.024774-.700029-5.689368-2.376521-3.247498-3.270644-6.792708-6.244387-10.167714-9.391372-1.057157-.985758-2.160728-1.466313-3.623128-1.261934-.871354.121797-1.778749-.018922-2.670047-.026975-1.225958-.011088-1.612208.351448-1.605519,1.576124.016246,2.973587.0551,5.947102.085622,8.920632.02548,2.481763-.144123,2.639131-2.649929,2.602632-1.188612-.017316-2.378058.027793-3.566539.006878-.438534-.007707-.884993-.087274-1.31041-.200124-.46944-.124527-.751299-.490782-.826992-.958822-.058609-.362413-.035553-.739112-.035302-1.109427.002195-3.187859.018157-6.375713.009185-9.563552-.011924-4.235236-.06332-8.470533-.058285-12.705667.003707-3.120308.083185-6.240294.105464-9.360621.018046-2.525552.000863-5.051412.000182-7.577147-.000097-.371795-.008449-.744244.009591-1.115247.060753-1.249304.332645-1.529822,1.644523-1.514898,3.494361.039739,6.988401.113496,10.482647.167764.669514.010414,1.339401-.005914,2.009108-.010929,3.571328-.026716,7.142993-.102875,10.713904-.070471,7.394197.06707,13.454786,4.756944,15.166732,11.817479,1.142625,4.712498.12528,8.982501-2.761859,12.833069-2.327888,3.104715-5.494607,4.917256-9.181736,5.922377-.420325.114582-.84594.209928-1.218683.301761ZM218.848613,23.084473c-.000351-.015352-.000689-.030704-.00104-.046055-2.23295.036667-4.465903.07287-6.698818.111035-.148484.002534-.336412-.033762-.437423.040719-.279839.206369-.620518.41713-.754916.709957-.144401.314645-.10653.724561-.105474,1.092865.011933,4.162128.032648,8.324275.049545,12.48639.003373.829142.334798,1.253328,1.160949,1.327302.813994.072892,1.634947.074605,2.453138.089991,3.27226.061565,6.547021.210682,9.81598.134628,1.688683-.039285,3.444153-.256353,5.033431-.793132,2.896464-.978307,5.902565-5.073905,4.961216-9.017894-.404121-1.693157-1.107868-2.98684-2.539327-4.005643-1.824595-1.298662-3.783962-2.043262-6.01757-2.065576-2.30655-.023037-4.613116-.043185-6.919691-.064587Z" style="fill: none; stroke: #000; stroke-miterlimit: 10;"/>
    <path d="M87.577405,14.433506c5.113433.100948,9.92267,1.156543,14.089759,3.96271,3.929255,2.646031,7.034805,6.073974,8.825359,10.650849,1.659163,4.240965,2.105138,8.514893,1.185841,12.906558-.836793,3.997452-2.645778,7.560819-5.472678,10.563548-1.846693,1.961593-3.887158,3.664656-6.246707,5.001428-1.772477,1.00418-3.649161,1.667401-5.621518,2.084139-4.361571.921547-8.700048.798182-13.057557-.159557-2.359086-.518531-4.536504-1.387314-6.628637-2.549403-5.384176-2.990656-8.622888-7.646246-10.334755-13.432829-2.029996-6.861882-.870057-13.261116,3.141948-19.128465,2.963935-4.334595,7.081456-7.133159,12.095071-8.650058,2.654994-.803272,5.38922-1.082317,8.023874-1.248919ZM87.635752,22.603066c-2.629228-.190327-5.054595.555235-7.386334,1.538859-4.795822,2.02307-7.362095,5.909123-8.321936,10.833279-.610493,3.131817-.035608,6.199614,1.573742,9.038997,2.261613,3.990107,5.625281,6.457912,10.096567,7.370138,1.448895.295608,2.944385.382412,4.423381.50767,3.81785.323326,7.214182-.88643,10.174136-3.179783,3.60521-2.793297,5.495363-6.522245,5.570724-11.150023.053194-3.267622-.992804-6.149917-2.943568-8.686824-3.32018-4.317759-7.940688-5.997888-13.186711-6.272314Z" style="stroke-width: 0px;"/>
    <path d="M264.135011,59.995434c-6.397224-.064155-12.342011-1.661896-17.683817-5.253389-1.045957-.70323-2.03339-1.502421-2.993913-2.320593-.673721-.573856-.707257-1.304394-.097677-1.953934,1.169945-1.246671,2.379766-2.457094,3.601229-3.653782.580433-.568651,1.151855-.584308,1.804813-.12038.906087.643789,1.768496,1.353669,2.702953,1.951986,2.793746,1.788817,5.890039,2.881463,9.125629,3.426199,2.709592.456188,5.485997.423865,8.225813.089311,1.175535-.143532,2.318365-.497954,3.29222-1.265912,1.444451-1.139046,2.255369-2.596402,2.085889-4.437914-.194686-2.115536-1.403171-3.563394-3.36604-4.324757-.754275-.29261-1.571329-.468616-2.376085-.578626-4.564887-.623949-9.148218-1.125609-13.698682-1.838542-3.805472-.596218-6.871719-2.484389-8.510529-6.098816-1.090563-2.405271-1.381073-4.993401-.871147-7.629308.847986-4.38357,3.642604-7.221468,7.453692-9.152687,3.028512-1.534662,6.313411-2.183275,9.702422-2.202898,5.376255-.031137,10.467658,1.143011,15.203279,3.738405.195545.107148.393313.211272.58241.329049,1.805318,1.124547,1.922735,1.810825.60643,3.543158-.674757.887997-1.328138,1.793777-2.035626,2.655039-.97346,1.184995-1.38474,1.27109-2.647891.550799-3.153209-1.798056-6.533618-2.852642-10.157531-3.018468-1.553743-.071105-3.141403-.09235-4.670294.143982-2.377967.367558-4.336432,1.532918-5.440246,3.79591-1.080843,2.215952-.452969,4.161806,1.815706,5.164392,1.274207.563105,2.666036.944522,4.043783,1.166695,1.532708.247151,3.108549.26364,4.667581.303158,2.840655.072005,5.618397.60017,8.383269,1.160276,3.036446.615091,5.438147,2.406279,7.421533,4.675377.854393.977458,1.525114,2.253931,1.87558,3.507347,1.133819,4.05493.796754,7.983253-1.809012,11.455483-1.641373,2.187172-3.863806,3.6992-6.411579,4.659951-2.868111,1.081581-5.831228,1.738071-8.93172,1.536052-.296276-.019296-.594911-.002562-.892441-.002562Z" style="fill: none; stroke: #000; stroke-miterlimit: 10;"/>
    <path d="M112.784147,15.244666c1.039945,0,2.084281.059795,3.118637-.016216,1.117815-.082129,1.860434.341654,2.305482,1.345302.150313.339037.314421.672283.456172,1.014809,1.788618,4.322822,3.55297,8.655836,5.366917,12.968015,1.756145,4.174752,3.566057,8.326869,5.343851,12.492545.320447.75087.581128,1.527371.906728,2.275815.14366.330207.356382.73404.800013.596245.222701-.069184.439432-.366237.533605-.608823,1.450231-3.735911,2.867198-7.484713,4.317183-11.220705,1.987708-5.121494,4.003471-10.232114,5.990061-15.354045.321346-.828584.526326-1.70185.835948-2.535599.255474-.687845.770539-1.050484,1.53996-1.051561,2.376808-.003311,4.75367-.042966,7.130396-.033754.887506.003448,1.288003.687191.938001,1.563387-.357173.894075-.786844,1.759192-1.144398,2.653117-1.047443,2.618764-2.079155,5.24385-3.109148,7.86955-1.815965,4.629304-3.626231,9.260843-5.438651,13.891551-.730705,1.866899-1.463536,3.732967-2.190315,5.601393-1.318813,3.39066-2.633918,6.78275-3.950468,10.174296-1.064402,2.741937-1.31854,2.707529-3.894792,2.66996-1.258366-.018342-2.519595-.055312-3.775153.005655-1.336781.064905-2.040847-.615609-2.503618-1.770366-.607167-1.515025-1.27737-3.004882-1.923526-4.50425-2.409962-5.592304-4.790587-11.197526-7.239975-16.772537-2.836934-6.457013-5.734587-12.887385-8.606992-19.328822-.090411-.202836-.213049-.393109-.286883-.601205-.280231-.789952.087875-1.330463.915153-1.336472,1.18854-.008639,2.377217-.002208,3.565839-.002208,0,.004974,0,.009948-.000027.014921Z" style="stroke-width: 0px;"/>
  </g>
</svg>