<?xml version="1.0" encoding="UTF-8"?>
<svg id="uuid-3e23f415-68f4-4a30-b9f9-c0bf8a624d4c" data-name="Layer 1" xmlns="http://www.w3.org/2000/svg" viewBox="0 0 299.01 74.67">
  <defs>
    <style>
      .uuid-a2ab1501-60d9-4ca0-92d0-af6bd00d1b0d, .uuid-ea233638-3820-4906-ba6e-ed74828fdf90 {
        fill: none;
      }

      .uuid-a2ab1501-60d9-4ca0-92d0-af6bd00d1b0d, .uuid-a4d3b77a-00ae-414e-acf0-610b84a096d8 {
        stroke-width: 0px;
      }

      .uuid-ea233638-3820-4906-ba6e-ed74828fdf90 {
        stroke: #000;
        stroke-miterlimit: 10;
      }
    </style>
  </defs>
  <rect class="uuid-a2ab1501-60d9-4ca0-92d0-af6bd00d1b0d" width="299.01" height="74.67"/>
  <g>
    <path class="uuid-ea233638-3820-4906-ba6e-ed74828fdf90" d="M196.7,15.21c.51.57.52,1.15.51,1.76-.05,4.91-.09,9.81-.12,14.72,0,1.26.09,2.53.08,3.79-.02,5.06-.07,10.11-.09,15.17,0,2.01.05,4.01.08,6.02,0,.37.02.74,0,1.12-.07,1.18-.28,1.43-1.39,1.64-.36.07-.73.15-1.1.15-1.79.02-3.57.01-5.36.02-.97,0-1.69-.42-2.26-1.2-2.4-3.22-4.81-6.43-7.22-9.64-1.38-1.84-2.76-3.69-4.15-5.53-2.78-3.68-5.56-7.35-8.33-11.04-.71-.95-1.38-1.93-2.09-2.89-.27-.37-.59-.69-1.22-.42-.02.32-.12.69-.06,1.03.39,2.22.07,4.44.04,6.66-.06,3.87-.08,7.73-.09,11.6,0,3.27.02,6.54.03,9.81,0,.99-.46,1.55-1.47,1.58-1.86.05-3.72.07-5.58-.01-1.14-.05-1.54-.61-1.52-1.77.08-7.73.14-15.46.23-23.19.03-3.11.16-6.23.15-9.34,0-2.75-.14-5.49-.22-8.24,0-.3-.05-.59-.03-.89.03-.52.53-1.07,1.03-.95,2.16.51,4.29-.11,6.44-.03.37.02.74.06,1.11.12.61.1,1.07.4,1.46.92,6.45,8.64,12.92,17.26,19.38,25.89.94,1.25,1.85,2.51,2.8,3.75.2.26.5.44.85.74.16-.35.32-.53.32-.72.02-3.79.04-7.58.03-11.37-.01-4.09-.05-8.17-.09-12.26-.02-1.85-.1-3.71-.14-5.56-.02-1.05.43-1.56,1.41-1.57,1.86-.02,3.72-.03,5.58-.02.36,0,.72.1.99.15Z"/>
    <path class="uuid-a4d3b77a-00ae-414e-acf0-610b84a096d8" d="M38.29,35.78c.68-.06,1.26-.16,1.85-.15,4.39.02,8.78.08,13.16.1,2.08.01,4.16-.02,6.24-.03.98,0,1.39.34,1.45,1.28.04.67-.02,1.34-.02,2.01,0,4.91.02,9.82.03,14.73,0,1.26,0,2.53-.04,3.79-.03,1.31-.4,1.71-1.74,1.77-1.04.04-2.08,0-3.12-.02-.52,0-1.03-.05-1.55-.05-1.22,0-1.32-.07-1.58-1.31-.03-.15-.04-.3-.08-.44-.02-.07-.09-.12-.25-.31-.31.05-.77.02-1.1.21-2.16,1.26-4.49,1.92-6.97,2.14-1.11.1-2.21.36-3.32.44-6.21.49-11.89-1.04-16.66-5.04-6.45-5.41-9.35-12.43-8.08-20.84,1.14-7.56,5.24-13.15,12.12-16.59,5.59-2.8,11.51-3.38,17.6-2.27,4.75.86,8.78,3.15,12.14,6.61.84.87.88,1.43.06,2.3-1.27,1.36-2.57,2.69-3.9,3.99-.78.77-1.51.71-2.32-.09-.37-.37-.66-.82-1.05-1.15-.73-.63-1.43-1.34-2.28-1.76-2.07-1.01-4.17-1.94-6.54-2.11-1.12-.08-2.21-.11-3.32.06-1.68.26-3.42.18-5.01.94-.87.42-1.81.73-2.58,1.28-2.88,2.08-5.17,4.68-6.62,7.96-.15.34-.3.7-.32,1.06-.42,6.78,1.41,12.17,7.99,15.9,1.97,1.12,4.17,1.57,6.42,1.68,3.49.17,6.81-.46,9.86-2.23,1.44-.83,2.67-1.88,3.67-3.21.22-.29.43-.61.56-.95.35-1-.15-1.79-1.19-1.94-.29-.04-.6-.06-.89-.04-3.72.33-7.43-.15-11.14-.14-1.53,0-2.06-.52-1.92-2.03.12-1.34.17-2.66.09-3.99-.03-.48.21-.98.35-1.55Z"/>
    <path class="uuid-ea233638-3820-4906-ba6e-ed74828fdf90" d="M229.57,46.24c-.21.73.22,1.04.62,1.38,2.04,1.74,4.07,3.49,6.11,5.23,1.81,1.55,3.63,3.09,5.44,4.63.17.14.38.29.45.48.1.26.18.6.08.83-.1.22-.43.48-.66.48-2.3.05-4.6,0-6.9.06-2.28.07-4.02-.7-5.69-2.38-3.25-3.27-6.79-6.24-10.17-9.39-1.06-.99-2.16-1.47-3.62-1.26-.87.12-1.78-.02-2.67-.03-1.23-.01-1.61.35-1.61,1.58.02,2.97.06,5.95.09,8.92.03,2.48-.14,2.64-2.65,2.6-1.19-.02-2.38.03-3.57,0-.44,0-.88-.09-1.31-.2-.47-.12-.75-.49-.83-.96-.06-.36-.04-.74-.04-1.11,0-3.19.02-6.38,0-9.56-.01-4.24-.06-8.47-.06-12.71,0-3.12.08-6.24.11-9.36.02-2.53,0-5.05,0-7.58,0-.37,0-.74,0-1.12.06-1.25.33-1.53,1.64-1.51,3.49.04,6.99.11,10.48.17.67.01,1.34,0,2.01-.01,3.57-.03,7.14-.1,10.71-.07,7.39.07,13.45,4.76,15.17,11.82,1.14,4.71.13,8.98-2.76,12.83-2.33,3.1-5.49,4.92-9.18,5.92-.42.11-.85.21-1.22.3ZM218.85,23.08s0-.03,0-.05c-2.23.04-4.47.07-6.7.11-.15,0-.34-.03-.44.04-.28.21-.62.42-.75.71-.14.31-.11.72-.11,1.09.01,4.16.03,8.32.05,12.49,0,.83.33,1.25,1.16,1.33.81.07,1.63.07,2.45.09,3.27.06,6.55.21,9.82.13,1.69-.04,3.44-.26,5.03-.79,2.9-.98,5.9-5.07,4.96-9.02-.4-1.69-1.11-2.99-2.54-4.01-1.82-1.3-3.78-2.04-6.02-2.07-2.31-.02-4.61-.04-6.92-.06Z"/>
    <path class="uuid-a4d3b77a-00ae-414e-acf0-610b84a096d8" d="M87.58,14.43c5.11.1,9.92,1.16,14.09,3.96,3.93,2.65,7.03,6.07,8.83,10.65,1.66,4.24,2.11,8.51,1.19,12.91-.84,4-2.65,7.56-5.47,10.56-1.85,1.96-3.89,3.66-6.25,5-1.77,1-3.65,1.67-5.62,2.08-4.36.92-8.7.8-13.06-.16-2.36-.52-4.54-1.39-6.63-2.55-5.38-2.99-8.62-7.65-10.33-13.43-2.03-6.86-.87-13.26,3.14-19.13,2.96-4.33,7.08-7.13,12.1-8.65,2.65-.8,5.39-1.08,8.02-1.25ZM87.64,22.6c-2.63-.19-5.05.56-7.39,1.54-4.8,2.02-7.36,5.91-8.32,10.83-.61,3.13-.04,6.2,1.57,9.04,2.26,3.99,5.63,6.46,10.1,7.37,1.45.3,2.94.38,4.42.51,3.82.32,7.21-.89,10.17-3.18,3.61-2.79,5.5-6.52,5.57-11.15.05-3.27-.99-6.15-2.94-8.69-3.32-4.32-7.94-6-13.19-6.27Z"/>
    <path class="uuid-ea233638-3820-4906-ba6e-ed74828fdf90" d="M264.14,60c-6.4-.06-12.34-1.66-17.68-5.25-1.05-.7-2.03-1.5-2.99-2.32-.67-.57-.71-1.3-.1-1.95,1.17-1.25,2.38-2.46,3.6-3.65.58-.57,1.15-.58,1.8-.12.91.64,1.77,1.35,2.7,1.95,2.79,1.79,5.89,2.88,9.13,3.43,2.71.46,5.49.42,8.23.09,1.18-.14,2.32-.5,3.29-1.27,1.44-1.14,2.26-2.6,2.09-4.44-.19-2.12-1.4-3.56-3.37-4.32-.75-.29-1.57-.47-2.38-.58-4.56-.62-9.15-1.13-13.7-1.84-3.81-.6-6.87-2.48-8.51-6.1-1.09-2.41-1.38-4.99-.87-7.63.85-4.38,3.64-7.22,7.45-9.15,3.03-1.53,6.31-2.18,9.7-2.2,5.38-.03,10.47,1.14,15.2,3.74.2.11.39.21.58.33,1.81,1.12,1.92,1.81.61,3.54-.67.89-1.33,1.79-2.04,2.66-.97,1.18-1.38,1.27-2.65.55-3.15-1.8-6.53-2.85-10.16-3.02-1.55-.07-3.14-.09-4.67.14-2.38.37-4.34,1.53-5.44,3.8-1.08,2.22-.45,4.16,1.82,5.16,1.27.56,2.67.94,4.04,1.17,1.53.25,3.11.26,4.67.3,2.84.07,5.62.6,8.38,1.16,3.04.62,5.44,2.41,7.42,4.68.85.98,1.53,2.25,1.88,3.51,1.13,4.05.8,7.98-1.81,11.46-1.64,2.19-3.86,3.7-6.41,4.66-2.87,1.08-5.83,1.74-8.93,1.54-.3-.02-.59,0-.89,0Z"/>
    <path class="uuid-a4d3b77a-00ae-414e-acf0-610b84a096d8" d="M112.78,15.24c1.04,0,2.08.06,3.12-.02,1.12-.08,1.86.34,2.31,1.35.15.34.31.67.46,1.01,1.79,4.32,3.55,8.66,5.37,12.97,1.76,4.17,3.57,8.33,5.34,12.49.32.75.58,1.53.91,2.28.14.33.36.73.8.6.22-.07.44-.37.53-.61,1.45-3.74,2.87-7.48,4.32-11.22,1.99-5.12,4-10.23,5.99-15.35.32-.83.53-1.7.84-2.54.26-.69.77-1.05,1.54-1.05,2.38,0,4.75-.04,7.13-.03.89,0,1.29.69.94,1.56-.36.89-.79,1.76-1.14,2.65-1.05,2.62-2.08,5.24-3.11,7.87-1.82,4.63-3.63,9.26-5.44,13.89-.73,1.87-1.46,3.73-2.19,5.6-1.32,3.39-2.63,6.78-3.95,10.17-1.06,2.74-1.32,2.71-3.89,2.67-1.26-.02-2.52-.06-3.78,0-1.34.06-2.04-.62-2.5-1.77-.61-1.52-1.28-3-1.92-4.5-2.41-5.59-4.79-11.2-7.24-16.77-2.84-6.46-5.73-12.89-8.61-19.33-.09-.2-.21-.39-.29-.6-.28-.79.09-1.33.92-1.34,1.19,0,2.38,0,3.57,0,0,0,0,0,0,.01Z"/>
  </g>
</svg>